<svg xmlns="http://www.w3.org/2000/svg" width="230.06" height="40.68" viewBox="0 0 1063.38 173.13"><g fill="#fff"><path d="M263.7 151.53c-.5-6.5.3-8.2 5.4-9.8 5-1.6 8.4-4.7 10.2-9.5 1.5-4.2 3-8.4 4-12.8l17.2-69c.3-1 .3-2.4-.3-4.4-1.6 1.4-3.2 2.7-4.4 4.2-20.2 24.6-40.2 49.3-60.4 73.8-6.7 8.3-13.7 16.3-20.3 24.6-3.4 4.2-7.3 4.2-12.5 2.5 3.3-36 10.8-71.6 14.5-107.6l-1.4-.6c-1.3 1.2-2.7 2.2-3.8 3.6-16.7 19.8-33 40-50.2 59.5-15 17.3-30.4 34.6-48.7 48.7-14.5 11-30 20.7-48.3 24-14.8 2.8-29.6 3-43.5-3.6-14.7-7-23.2-21.6-20.8-39 2.4-17.8 11-31.4 25.8-41.3 9.4-6.4 20.2-8.6 31.5-7.3 8.8 1 14.3 8 13 15.8-1.6 7.6-10 15.5-18.3 13.3-4-1-7.7-3-11-5-5.5-3.4-9.3-3.7-14.3.2-13 10.3-15.7 36-4.3 46.7 6.7 6.2 15 8.5 23.7 9 20.6.7 38.5-7 54.5-19 20.4-15.7 37.4-35 53.7-54.8l35.3-42c3.8-4.7 7.3-9.5 11.6-15-2.5-.6-4-1.3-5.5-1.3h-58c-3.8.2-8 1-11.5 2.5-3 1.2-5.7 3.8-8.2 6.2-2 2-2.6 5-.3 6.7 1.4 1 4.2 1 6.3.4 1.8-.4 3.3-2 5-3 2.3-1 4.6-2.2 7-2.8 3.6-.8 7-.2 9.2 3.3 2 3.4 1.4 6.7-.5 10-3 4.7-6.7 8.6-12 11-6.7 3-13.7 3.6-21 1.3-9-3-14-13.8-10.3-23.7 4.3-12 13-19 24.8-22 7.4-1.7 15-2.8 22.7-2.8 29.6-.4 59.3-.2 89-.2 1.6 0 3.2.2 5.8.4l-9.5 78.8 1.3.6c1.5-1.3 3.2-2.5 4.4-4l40.8-50.6c5.8-7.3 11.7-14.5 17.4-22 2.4-2.8 5-4.3 9-4.2 11.7.3 23.4 0 35 0 1.7 0 3.3.3 5 .4 1 5.7 0 8.4-5 10-9.4 3-13.3 9.8-15.6 18.8-6.4 25.3-13 50.5-19.7 75.8-2.4 9.4-1 12 7.8 16 1.3.4 2.5 1.2 3.7 1.8-1 7-2 8.2-8.4 8.2h-40.5c-2 0-4-.4-6-.7zM475.9 1.73c5-5 6-5.3 15-4 1.4 15.7 3 31.5 4.4 48l-10.3 1.8c-2.7.3-4.2-1-5-3.7-1.8-6-4-11.7-6-17.4-.7-2.2-2-4-3-6-9.4-16.2-28.6-16.7-41.3-6.5-9 7-15 16.4-20.4 26.2-10.3 19-17.7 39-20.6 60.6-.8 5.8-1 11.7-.4 17.4 1.6 13.6 13.2 24 27.2 25 4 .4 8.4.5 12.4-.5 12-3 18.6-12.3 18-24.7 0-5 0-9.6 3-14 4.8-7.4 15-7.4 20 .2 2.8 4.7 4 9.7 2.4 15.3-4.2 15.6-14.2 26-29 32-21.7 9-51.7 2.7-68-14.3-12-12.7-15.7-28-13.8-45 2.7-24.8 12.4-46.7 28-66 10.6-13 23.2-24.2 39.5-30.2 15.1-5.4 29.4-4.4 43.4 3.6l4.5 2.2zm53.2 70.8l14.2-4c7.8-2.5 15.7-2.7 23.3 1 6.7 3 10.2 9.3 8.7 16.6-3.3 15-7 29.8-10.4 44.7-1.6 6.8-1 7.8 4.5 12 1.3 1 2.4 3 2.2 4.4-.3 1.7-2 3.4-3.4 4.4-1 .8-2.8.7-4.3.7h-31.5c-1.7 0-5-1.5-4.8-2 .3-2.3 1-5.8 2.4-6.4 9.5-3.8 12-12 14-20.5 2.2-8.7 4.3-17.4 6.3-26.2.3-1.7.7-3.5.7-5.3.3-8.2-3.3-11.7-11.2-10.2-4.5 1-8.8 3-13 5.2-1.5.8-2.8 3.2-3.3 5.2-3.4 12.8-6.8 25.7-10 38.6-1.5 6.7-.6 10 5 12.7 1 .5 2.2 2.7 2 3.8-.4 1.7-1.8 3.4-3 4.6-.8.8-2.3.7-3.4.7h-35c-2 0-4.6.2-5-3-.2-2.6.6-5 3.5-5.8 8.6-2.6 12-9 14-17.2 6-24.5 12.6-49 18.7-73.4 1.7-7 1-7.7-5.7-10.3-1.3-.4-3.3-2-3-3 .2-1.8 1.3-4.2 2.8-5 3.8-2.3 8-3.8 12-5.5 4-2 8.4-3.8 12.8-5.4 1.8-.6 3.8-1 5.8-1 4.4 0 5.2 1.2 4.2 5.5l-9 37c-.5 2-.6 4.3-1 7.4zm337.7 70.6c.7 6.6-.5 8.8-6 10.5-8.3 2.6-16.4 2.6-23.7-2.7-2.5-1.8-4.6-1.3-7-.2-7.6 3.3-15.5 5.4-23.8 4.8-3.6-.2-7-.7-10.4-1.8-10.6-3.5-15-12.8-11.2-23.4 2.7-7.8 7.5-14 15-17.3 8.2-3.7 17-6.5 25.7-9.4 4.3-1.4 8.8-2.2 13.2-3 3.5-.5 5.3-2.4 6-5.7l1-5.3c1.4-7.4-3.2-11.5-10.2-8.7-3.2 1.4-5.8 4.3-8.4 6.8-2.2 2-4 4.8-6.2 6.5-2.2 1.6-5 2.8-7.6 3.4-3.3.5-7 .3-9-3-2-3.4-1.6-7 .5-10.4 4-6.6 10.4-10.4 17.3-13 11.2-3.8 22.8-4.3 34.3-.6 9.6 3 14.3 10.5 12 20.3-2.8 13.3-6.2 26.6-9.3 40-2 9.2-1.5 10 7.7 12.3zm-27.6-29.8c-1-.3-1.6-.8-2.2-.7-9 1-17.6 3.5-24.2 10-3 3.3-5 7.2-4.6 11.8.2 3 1.6 5 4.2 6.3 6.4 3.2 18 .5 21.4-5.7 3.5-6.6 5-14 5.4-21.5zm-181.4 30.5c-1 8-1.8 8.8-8.4 10.6-7.5 2-14.6 1-21-3.2-2.7-1.8-5-1.8-8-.6-10 4-20.3 6.2-31 3.5-10-2.4-16.2-9.3-15-17.7 1.2-8.6 4.8-16 12.4-21.3 9-6.3 19-9.2 29.4-11.7 4.7-1.2 9.5-2 14-3.3 2-.5 4-2.3 4.5-4 1-3.2 1.5-6.7 1.6-10.2 0-3.8-2-5.7-6-5.8-5 0-8.4 2.7-11.5 6.2-2.3 2.5-4.4 5.3-7 7.6-4.5 4-10.5 4.8-14.3 2.5-3.7-2-4.6-4.7-3.3-8.7 2.7-8.8 10-13 17.8-16 11.4-4 23-5 34.8-1.3 9.6 3.1 14.6 10.4 12.6 20.1-3 13.5-6.5 27-9.7 40.7l-.8 4c-.8 4 .4 6 4.6 7.2 1.5.3 3 1 4.4 1.3zm-28-31.4c-10 1-19 3-25.6 10-2.5 2.5-4 6.4-4.8 10-1 4.6 2 8.2 6.6 8.8 8.5 1 18.6-.6 20.8-12.2.7-4 2-7.7 3-11.5.2-1.3 0-2.8 0-5zm428.2 13.5c-8.2 15.7-20 26.4-37.5 29.5-9.7 1.7-19 0-27.7-5-6.7-4-10.6-10.4-11.4-18-2.4-21.4 4.8-39.4 21.4-53 12-10.2 26.4-14.3 42-9.6 17.4 5.3 20 16.4 18 31.3-.3 3.4-3 3.4-5.6 3.4l-39.4.8c-8.4 0-8.8 0-10.6 8-1.4 6-2 12.4-2 18.6 0 7 5 11.2 12 11.5 8.7.3 15.4-4 21.3-9.5 2.2-2 3.8-4.3 5.5-6.6 4.2-6 7.2-6.5 14-1.6zm-20.6-33.8c2.2-5.5.7-9.7-4-11.3-7.3-2.7-16.6 3-17.7 11.3 7 2.4 14.3 1 21.7 0zm-373.8 60.2c-1.3-3.8-.3-6.4 3.5-8 6-2.4 9-7 10.5-13 2.8-11.5 5.8-23 8.5-34.4 2-8.3 1.5-9-6.3-12.3-.6 0-1.2-.5-1.7-.8-.2-5.6.6-7 5-9 7.6-3.4 15-6.8 22.5-10 2.6-1 5.6-1 9-1.6l.8 11.2 3.3-2.7c9-9.5 18.7-18.4 30.4-24.7 7-3.8 14.5-7 22.8-5.4 3 .6 6 2 8.5 3.7 3 1.8 3.7 5 3 8.4-.6 3.4-2.7 5.6-6 6-4 .2-8.4.6-12.3-.3-12-3-21 1.6-29.5 9.3-18.3 17-29 37.7-33 62.2-1.3 7 0 9.7 6.4 13.4 2 1.3 3.7 3 2.5 5.2-.7 1.5-2.5 3.5-4 3.5-14 .3-28.2 0-42.3 0-.5 0-1-.3-1.5-.5z"/><path d="M782 74.13c2.7-2.8 5.4-5.7 8.3-8.5 9.6-9.6 20.3-18 33.5-22.7 7-2.5 14.3-2.6 21 1.4 3.6 2 4.8 5 4 9-.7 3.7-3.3 5.8-7 6-3.4.4-7 .7-10.4 0-12-3-22 1-30.4 9-17.5 16.8-28.7 37-32.8 61-1 6.5-.6 12.3 6.8 15.3 1.2.5 2 3.3 1.8 5-.2 1.2-2 2.5-3.4 3.4-1 .5-2.3.2-3.5.2h-35c-2 0-3.8-.4-5.8-.5-.6-4.2.5-7 4-8.6 5.6-2.6 9-7 10.4-13 2.7-11.6 5.8-23 8.4-34.5 1.6-7.3.8-8.6-6-11.5-3.4-1.6-3.5-6.2 0-8.8 2-1.3 4.2-2.2 6.3-3.2 6.4-3 12.7-6 19.2-8.5 1.8-.8 4-1 6.2-1 2.4 0 3.5 1.3 3.2 4-.3 2 0 4 0 6 .3.3.7.4 1.2.6zm192.8-7.1l-.4 8.5 1 .6c2.8-2.7 5.6-5.5 8.6-8.2 9.2-8.4 19-16.3 30.8-21 6-2.3 12.5-3.6 19-1.5 1.8.5 3.7 1.4 5.3 2.6 3 2.2 4 5.5 3 9.2-1 3.8-3.8 5.7-7.3 5.8-4.2 0-8.6-.2-12.8-1-7.7-1.7-14.6-.2-21 4-17.3 12.5-28.3 29.5-35.6 49-2 6-3 12.2-4.5 18.4-1.3 5.3 1 9 5.4 11.6 1.2.8 2.7 2 3.2 3.4.8 2.6-1.4 5-4.5 5-13 .2-26 .3-39 .2-4 0-5.5-3-3.2-6.4.6-1 1.5-2 2.5-2.3 7-2.7 10-8.4 11.7-15l8.4-33c1.8-7 1.2-8-5.5-10.8-1-.4-1.6-1-2.4-1.7 0-4.2 1.6-7 5.7-8.5 7.5-3 14.8-6.2 22-9.2 3-1.2 6.2-1.8 9.7.5zm-87.4 21.7c-.5-3.6 1-6 4-7.4 7-3.5 14-7.3 21.2-10 3.3-1.4 7.3-1 12-1.2-1 4-1.4 6.7-2 9.4-4.7 17-9.2 34-14 51-1.5 5.8-1.8 10.8 4.7 14 1 .5 2 3.4 1.4 4.6-.7 1.7-2.5 3.4-4.3 4-1.8.7-4 .3-6.3.3-9 0-18 0-27-.2-2.4 0-5.5.5-5.8-3-.3-3 .2-6.2 4-7.2 6.6-1.6 9.8-6.5 11.4-12.6 2.7-10 5.2-20 7.6-30 1.8-7.7 1.7-7.7-5.3-10.7-.6-.3-1-.8-1.6-1zm-547.6 64.8c-5.6 0-9.3-3.5-9.5-8.7-.5-8.4 7.6-16 16-15.4 5.5.4 9 4.7 8.7 10-.6 7.4-8 14-15.3 14zm595.4-121c0 8.2-8 15-16.2 13.8-4.5-.7-7.3-3.7-7.5-8-.4-8.2 9.3-16.4 17.3-14.5 4.6 1 6.5 3.6 6.5 8.7z"/></g></svg>